<svg width="485" height="37" viewBox="0 0 485 37" fill="none" xmlns="http://www.w3.org/2000/svg">
<g clip-path="url(#clip0_1_883)">
<path d="M18.4799 29.8354V37C30.5509 37 39.9445 25.3082 35.9939 12.6054C34.2381 7.06713 29.8487 2.62779 24.3178 0.913563C11.6761 -3.04231 0 6.40785 0 18.4953H7.15475C7.15475 10.9351 14.6608 5.04526 22.65 7.94624C25.5907 9.00113 27.9611 11.3747 29.0146 14.3196C31.9117 22.3193 26.0735 29.8354 18.4799 29.8354Z" fill="#081B4B"/>
<path d="M11.3672 29.8797H18.4783V22.7592H11.3672V29.8797Z" fill="#081B4B"/>
<path d="M11.3666 35.3762H5.87964V29.8819H11.3666V35.3762Z" fill="#081B4B"/>
<path d="M1.27515 29.8823H5.8401V25.3111H1.27515V29.8823Z" fill="#081B4B"/>
<path fill-rule="evenodd" clip-rule="evenodd" d="M65.0871 10.7239C63.0017 9.29498 60.3948 8.55894 57.3538 8.55894H50.7498V29.5155H57.3538C60.3948 29.5155 63.0017 28.7361 65.0871 27.2206C66.2164 26.3979 67.1288 25.2722 67.7368 23.8433C68.3455 22.4145 68.6926 20.7691 68.6926 18.9073C68.6926 17.0454 68.3889 15.4001 67.7368 14.0146C67.1288 12.5857 66.2598 11.4599 65.0871 10.7239ZM54.6638 12.0684H56.7057C59.0084 12.0684 60.92 12.5013 62.3535 13.4106C63.9613 14.3632 64.7867 16.225 64.7867 18.8662C64.7867 21.594 63.9613 23.4992 62.3535 24.5383C60.9633 25.4476 59.0953 25.9239 56.7493 25.9239H54.6638V12.0684Z" fill="#081B4B"/>
<path d="M71.7334 8.90583C72.1679 8.4728 72.6891 8.25632 73.3412 8.25632C73.9492 8.25632 74.5139 8.5161 74.9917 8.90583C75.4262 9.33879 75.6438 9.85835 75.6438 10.5079C75.6438 11.1573 75.4262 11.7202 74.9917 12.1532C74.5139 12.5862 73.9933 12.8027 73.3412 12.8027C72.6891 12.8027 72.1245 12.5862 71.69 12.1532C71.2555 11.6769 71.0386 11.1573 71.0386 10.5079C71.0386 9.85835 71.2989 9.33879 71.7334 8.90583Z" fill="#081B4B"/>
<path d="M71.4303 14.706H75.1672V29.4708H71.4303V14.706Z" fill="#081B4B"/>
<path fill-rule="evenodd" clip-rule="evenodd" d="M84.9372 14.4035C86.2834 14.4035 87.5435 14.9664 88.6734 15.9622V14.7065H92.3229V28.1291C92.3229 30.3373 91.6275 32.1559 90.324 33.4982C89.0211 34.8404 87.2398 35.5332 85.0239 35.5332C83.4161 35.5332 81.9825 35.1435 80.8966 34.4507C79.81 33.758 78.9851 33.0219 78.4198 32.2425L78.333 32.1559L80.8532 29.7312C82.2001 31.4631 83.2426 32.1559 84.9806 32.1559C86.0665 32.1559 86.9788 31.8095 87.6309 31.16C88.2389 30.5105 88.5867 29.558 88.5867 28.3456V27.9992C87.5435 28.7786 86.3274 29.1683 84.8938 29.1683C82.8515 29.1683 81.1141 28.4755 79.81 27.09C78.5072 25.6611 77.8551 23.8858 77.8551 21.8075C77.8551 19.6859 78.5072 17.9107 79.8541 16.5251C81.1569 15.0963 82.8949 14.4035 84.9372 14.4035ZM85.1107 25.7488C86.1973 25.7488 87.0229 25.4025 87.6743 24.6663C88.3263 23.9302 88.6734 22.9777 88.6307 21.7654C88.6307 20.5963 88.3263 19.6004 87.6743 18.8643C87.0229 18.1283 86.1973 17.7819 85.1107 17.7819C84.0688 17.7819 83.2432 18.1283 82.5912 18.8643C81.9397 19.6004 81.6354 20.553 81.6354 21.7654C81.6354 22.9777 81.9397 23.9302 82.5912 24.6663C83.1992 25.4025 84.0248 25.7488 85.1107 25.7488Z" fill="#081B4B"/>
<path d="M95.4984 14.7061H99.2353V29.4709H95.4984V14.7061Z" fill="#081B4B"/>
<path d="M95.8021 8.90583C96.2366 8.4728 96.7578 8.25632 97.4092 8.25632C98.0607 8.25632 98.5826 8.5161 99.0604 8.90583C99.4949 9.33879 99.7119 9.85835 99.7119 10.5079C99.7119 11.1573 99.4949 11.7202 99.0604 12.1532C98.5826 12.5862 98.0607 12.8027 97.4092 12.8027C96.7578 12.8027 96.1932 12.5862 95.7587 12.1532C95.3242 11.6769 95.1066 11.1573 95.1066 10.5079C95.1066 9.85835 95.3676 9.33879 95.8021 8.90583Z" fill="#081B4B"/>
<path d="M107.401 10.7224H103.751V14.7059H101.622V18.0831H103.751V24.1883C103.751 26.0934 104.142 27.479 104.88 28.2583C105.663 29.0377 107.01 29.4707 108.878 29.4707C109.486 29.4707 110.094 29.4707 110.702 29.4274H110.876V26.0501L109.616 26.1367C108.747 26.1367 108.139 25.9635 107.835 25.6604C107.531 25.3573 107.401 24.7078 107.401 23.712V18.1264H110.876V14.7492H107.401V10.7224Z" fill="#081B4B"/>
<path d="M132.081 8.51376H128.344V29.4703H132.081V8.51376Z" fill="#081B4B"/>
<path d="M169.659 24.189C169.007 24.925 168.312 25.5745 167.791 25.9209C167.269 26.2673 166.618 26.3972 165.879 26.3972C164.793 26.3972 163.881 26.0075 163.186 25.1848C162.491 24.3622 162.099 23.323 162.099 22.0673C162.099 20.8117 162.447 19.7725 163.143 18.9498C163.837 18.1272 164.75 17.7375 165.836 17.7375C167.052 17.7375 168.312 18.4735 169.398 19.7725L171.875 17.4343C170.267 15.356 168.225 14.4035 165.792 14.4035C163.751 14.4035 161.969 15.1396 160.536 16.6117C159.102 18.0839 158.363 19.9024 158.363 22.1106C158.363 24.3189 159.102 26.1807 160.536 27.6095C161.969 29.0817 163.751 29.8178 165.792 29.8178C168.486 29.8178 170.658 28.6487 172.136 26.5271L169.659 24.189Z" fill="#081B4B"/>
<path fill-rule="evenodd" clip-rule="evenodd" d="M182.824 15.0123C183.693 15.4452 184.431 16.0514 184.953 16.7875C185.475 17.5236 185.866 18.3029 186.213 19.2122C186.474 20.0782 186.604 20.9874 186.604 21.94L186.561 23.2823H176.698C176.785 24.2349 177.132 24.9709 177.741 25.5338C178.393 26.14 179.218 26.4431 180.261 26.4431C180.956 26.4431 181.564 26.2699 182.129 26.0101C182.52 25.8369 182.868 25.5771 183.215 25.2308C183.239 25.2027 183.265 25.1747 183.29 25.1468C183.323 25.11 183.357 25.0732 183.392 25.0366C183.475 24.9501 183.561 24.8644 183.645 24.7804C183.792 24.6347 183.932 24.4943 184.041 24.3648L186.474 26.7029L186.387 26.7895C184.823 28.7812 182.781 29.7771 180.261 29.7771C178.045 29.7771 176.221 29.041 174.873 27.6554C173.527 26.2266 172.832 24.4081 172.832 22.1565C172.832 19.9916 173.44 18.1297 174.7 16.6143C175.96 15.1421 177.654 14.3627 179.739 14.3627C180.913 14.3627 181.955 14.5793 182.824 15.0123ZM177.784 18.5179C177.349 18.9509 177.002 19.557 176.828 20.2498V20.2931H182.563C182.519 19.6004 182.259 19.0375 181.825 18.5612C181.347 18.0416 180.651 17.7818 179.739 17.7818C178.957 17.7818 178.305 18.0416 177.784 18.5179Z" fill="#081B4B"/>
<path fill-rule="evenodd" clip-rule="evenodd" d="M199.25 15.8323C198.12 14.8798 196.556 14.4035 194.6 14.4035C193.341 14.4035 192.211 14.6632 191.168 15.1829C190.213 15.6591 189.257 16.4818 188.648 17.5642L188.692 17.6076L191.082 19.9024C192.081 18.3436 193.167 17.7808 194.6 17.7808C195.382 17.7808 196.035 17.9973 196.512 18.3869C196.99 18.7766 197.251 19.2962 197.251 19.989V20.7251C196.338 20.4653 195.426 20.2921 194.514 20.2921C192.645 20.2921 191.168 20.7251 190.038 21.5911C188.909 22.457 188.344 23.7127 188.344 25.2714C188.344 26.6569 188.822 27.7827 189.778 28.6054C190.734 29.4281 191.951 29.8178 193.384 29.8178C194.818 29.8178 196.121 29.2549 197.337 28.259V29.4714H200.987V19.989C200.943 18.1704 200.379 16.7849 199.25 15.8323ZM192.643 23.8425C193.077 23.5395 193.642 23.4096 194.424 23.4096C195.337 23.4096 196.292 23.5828 197.248 23.9291V25.358C196.422 26.094 195.337 26.4838 194.033 26.4838C193.382 26.4838 192.903 26.3539 192.556 26.0508C192.208 25.791 192.034 25.4446 192.034 24.9683C192.034 24.492 192.208 24.1023 192.643 23.8425Z" fill="#081B4B"/>
<path d="M210.933 14.3582C212.802 14.3582 214.235 14.9211 215.278 16.0902C216.32 17.2593 216.842 18.8613 216.842 20.8963V29.4262H213.105V20.8963C213.105 19.9005 212.888 19.1211 212.411 18.5582C211.933 17.9953 211.281 17.7355 210.456 17.7355C209.5 17.7355 208.761 18.0386 208.24 18.6881C207.719 19.3376 207.458 20.2036 207.458 21.3293V29.4695H203.721V14.7046H207.371V15.6139C208.24 14.7912 209.456 14.3582 210.933 14.3582Z" fill="#081B4B"/>
<path fill-rule="evenodd" clip-rule="evenodd" d="M123.656 15.8323C122.526 14.8798 120.962 14.4035 119.007 14.4035C117.747 14.4035 116.618 14.6632 115.574 15.1829C114.619 15.6591 113.663 16.4818 113.055 17.5642L113.098 17.6076L115.488 19.9024C116.487 18.3436 117.573 17.7808 119.007 17.7808C119.789 17.7808 120.441 17.9973 120.918 18.3869C121.396 18.7766 121.657 19.2962 121.657 19.989V20.7251C120.744 20.4653 119.833 20.2921 118.92 20.2921C117.052 20.2921 115.574 20.7251 114.445 21.5911C113.316 22.457 112.751 23.7127 112.751 25.2714C112.751 26.6569 113.228 27.7827 114.184 28.6054C115.14 29.4281 116.357 29.8178 117.79 29.8178C119.224 29.8178 120.527 29.2549 121.744 28.259V29.4714H125.393V19.989C125.35 18.1704 124.785 16.7849 123.656 15.8323ZM117.049 23.8425C117.483 23.5395 118.048 23.4096 118.83 23.4096C119.743 23.4096 120.698 23.5828 121.654 23.9291V25.358C120.828 26.094 119.743 26.4838 118.439 26.4838C117.788 26.4838 117.31 26.3539 116.962 26.0508C116.614 25.791 116.441 25.4446 116.441 24.9683C116.441 24.492 116.614 24.1023 117.049 23.8425Z" fill="#081B4B"/>
<path fill-rule="evenodd" clip-rule="evenodd" d="M134.73 18.9925C134.73 24.9244 139.596 29.7739 145.547 29.7739C151.543 29.7739 156.366 24.9244 156.366 18.9925C156.366 13.0606 151.499 8.21115 145.547 8.21115C139.596 8.21115 134.73 13.0606 134.73 18.9925ZM138.55 18.9491C138.55 15.0956 141.678 11.9781 145.545 11.9781C149.412 11.9781 152.54 15.0956 152.54 18.9491C152.54 22.8027 149.412 25.9202 145.545 25.9202C141.678 25.9202 138.55 22.8027 138.55 18.9491Z" fill="#081B4B"/>
<path d="M247.923 12.6579C248.281 12.6579 248.571 12.9485 248.571 13.307V17.8509H253.103C253.461 17.8509 253.751 18.1415 253.751 18.5C253.751 18.8585 253.461 19.1491 253.103 19.1491H248.571V23.693C248.571 24.0515 248.281 24.3421 247.923 24.3421C247.566 24.3421 247.276 24.0515 247.276 23.693V19.1491H242.743C242.385 19.1491 242.095 18.8585 242.095 18.5C242.095 18.1415 242.385 17.8509 242.743 17.8509H247.276V13.307C247.276 12.9485 247.566 12.6579 247.923 12.6579Z" fill="#081B4B"/>
<path d="M289.937 21.6554L283.774 26.2238C283.033 26.7218 282.458 27.0541 281.719 27.0541C280.239 27.0541 279.006 25.725 279.006 24.2323C279.006 22.9865 279.993 22.073 280.897 21.6575L288.13 18.5014L280.895 15.2607C279.909 14.8452 279.005 13.9316 279.005 12.6859C279.005 11.191 280.32 9.94521 281.797 9.94521C282.537 9.94521 283.03 10.1943 283.77 10.7755L289.937 15.3439L289.114 7.9524C288.868 6.20787 290.022 4.7963 291.662 4.7963C293.303 4.7963 294.455 6.12463 294.21 7.86912L293.388 15.3439L299.551 10.7755C300.291 10.1943 300.866 9.94521 301.606 9.94521C302.323 9.9517 303.01 10.2425 303.517 10.7551C304.024 11.2676 304.312 11.961 304.318 12.6859C304.318 14.0149 303.414 14.8452 302.428 15.2607L295.196 18.4993L302.429 21.6554C303.416 22.0709 304.32 22.9844 304.32 24.3135C304.32 25.8083 303.005 27.0541 301.528 27.0541C300.87 27.0541 300.294 26.7218 299.555 26.2238L293.39 21.6554L294.21 29.0469C294.455 30.7928 293.306 32.2037 291.662 32.2037C290.018 32.2037 288.87 30.8747 289.114 29.1309L289.937 21.6554Z" fill="#081B4B"/>
<path d="M328.032 24.0159C328.331 23.7447 328.719 23.5959 329.121 23.5979C329.565 23.5996 329.991 23.7774 330.308 24.0936C330.626 24.4097 330.811 24.8395 330.823 25.2919C330.821 25.5397 330.768 25.7843 330.668 26.0098C330.567 26.2354 330.421 26.4369 330.239 26.6012C328.311 28.3285 326.118 29.3974 322.818 29.3974C316.86 29.3974 312.42 24.6557 312.42 18.6712V18.6121C312.42 12.6905 316.777 7.84154 322.949 7.84154C326.104 7.84154 328.181 8.79211 329.959 10.1902C330.178 10.3617 330.356 10.5825 330.477 10.8352C330.598 11.0881 330.661 11.366 330.66 11.6475C330.646 11.9794 330.545 12.3014 330.366 12.5795C330.188 12.8578 329.939 13.0818 329.647 13.2283C329.354 13.3747 329.027 13.4381 328.702 13.4119C328.378 13.3856 328.065 13.2705 327.799 13.0789C326.45 11.8724 324.716 11.2061 322.92 11.2037C319.039 11.2037 316.174 14.4844 316.174 18.5529V18.6121C316.174 22.7065 319.01 26.0094 322.92 26.0094C325.083 26.0094 326.543 25.2956 328.032 24.0159Z" fill="#081B4B"/>
<path d="M337.62 13.6892C337.62 15.2944 338.553 16.0082 342.499 16.9625C346.819 18.0314 349.059 19.6107 349.048 23.0616V23.1208C349.048 27.0191 346.038 29.3419 341.744 29.3419C338.972 29.3455 336.276 28.4259 334.065 26.7233C333.847 26.5642 333.67 26.3543 333.548 26.111C333.426 25.8678 333.363 25.5983 333.365 25.3251C333.377 25.0062 333.473 24.6965 333.644 24.429C333.815 24.1616 334.054 23.9463 334.336 23.8059C334.617 23.6656 334.931 23.6055 335.243 23.6321C335.555 23.6586 335.854 23.7707 336.109 23.9567C337.709 25.3384 339.738 26.0973 341.834 26.0982C344.064 26.0982 345.465 25.0256 345.465 23.4795V23.4203C345.465 21.9298 344.648 21.1272 340.851 20.2358C336.498 19.1632 334.047 17.8539 334.047 14.0146V13.9554C334.047 10.3825 336.966 7.91553 341.025 7.91553C343.329 7.8686 345.593 8.54382 347.509 9.84992C347.755 9.9996 347.958 10.2136 348.097 10.4697C348.235 10.7258 348.304 11.0149 348.297 11.3072C348.295 11.5321 348.251 11.7545 348.165 11.9618C348.08 12.169 347.955 12.3569 347.797 12.5147C347.64 12.6725 347.454 12.797 347.25 12.8811C347.044 12.9653 346.825 13.0073 346.605 13.0049C346.274 13.0065 345.949 12.9129 345.668 12.7349C344.074 11.6919 342.557 11.1593 340.948 11.1593C338.847 11.1593 337.62 12.2578 337.62 13.63V13.6892Z" fill="#081B4B"/>
<path d="M355.728 13.6892C355.728 15.2944 356.661 16.0082 360.604 16.9625C364.928 18.0314 367.146 19.6107 367.138 23.0616V23.1208C367.138 27.0192 364.133 29.3419 359.838 29.3419C357.066 29.3446 354.369 28.4252 352.156 26.7233C351.938 26.5636 351.762 26.3535 351.64 26.1105C351.518 25.8673 351.455 25.5982 351.455 25.3251C351.468 25.0061 351.565 24.6966 351.737 24.4293C351.908 24.162 352.148 23.9469 352.429 23.8066C352.711 23.6664 353.024 23.6063 353.336 23.6327C353.649 23.6592 353.948 23.7711 354.203 23.9567C355.802 25.3376 357.829 26.0964 359.925 26.0982C362.154 26.0982 363.556 25.0256 363.556 23.4796V23.4204C363.556 21.9298 362.739 21.1272 358.941 20.2358C354.588 19.1632 352.134 17.8539 352.134 14.0146V13.9554C352.134 10.3825 355.057 7.91554 359.116 7.91554C361.427 7.86478 363.696 8.54019 365.617 9.84992C365.864 9.99961 366.067 10.2136 366.205 10.4697C366.344 10.7258 366.413 11.0149 366.406 11.3072C366.404 11.5321 366.36 11.7545 366.274 11.9618C366.189 12.169 366.064 12.3569 365.906 12.5147C365.812 12.6095 365.707 12.6924 365.593 12.7616C365.518 12.8076 365.439 12.8476 365.358 12.8811C365.153 12.9653 364.934 13.0073 364.713 13.0049C364.383 13.0065 364.058 12.9129 363.777 12.7349C362.183 11.6919 360.662 11.1593 359.057 11.1593C356.955 11.1593 355.728 12.2578 355.728 13.63V13.6892Z" fill="#081B4B"/>
<path d="M371.673 18.1534H377.166C377.613 18.1743 378.035 18.3698 378.344 18.6995C378.654 19.0291 378.826 19.4674 378.826 19.9233C378.826 20.3791 378.654 20.8174 378.344 21.1471C378.035 21.4767 377.613 21.6723 377.166 21.6931H371.673C371.226 21.6723 370.804 21.4767 370.495 21.1471C370.186 20.8174 370.014 20.3791 370.014 19.9233C370.014 19.4674 370.186 19.0291 370.495 18.6995C370.804 18.3698 371.226 18.1743 371.673 18.1534Z" fill="#081B4B"/>
<path d="M380.143 8.21141H393.714C394.142 8.23179 394.546 8.41939 394.842 8.73512C395.137 9.05099 395.302 9.47071 395.302 9.90724C395.302 10.3438 395.137 10.7636 394.842 11.0794C394.546 11.3952 394.142 11.5828 393.714 11.6031H388.736V27.3779C388.736 27.8684 388.545 28.3388 388.205 28.6856C387.864 29.0324 387.402 29.2273 386.921 29.2273C386.44 29.2273 385.978 29.0324 385.638 28.6856C385.297 28.3388 385.106 27.8684 385.106 27.3779V11.6031H380.143C379.918 11.6138 379.693 11.5779 379.482 11.4975C379.271 11.4171 379.078 11.2939 378.914 11.1354C378.751 10.9769 378.622 10.7863 378.533 10.5752C378.475 10.4378 378.436 10.2936 378.415 10.1464C378.404 10.0674 378.399 9.98748 378.399 9.90724C378.399 9.67765 378.444 9.45039 378.533 9.23936C378.622 9.02827 378.751 8.83762 378.914 8.6791C379.078 8.52059 379.271 8.39745 379.482 8.31702C379.693 8.23666 379.918 8.2007 380.143 8.21141Z" fill="#081B4B"/>
<path fill-rule="evenodd" clip-rule="evenodd" d="M400.528 8.21141H407.829C410.414 8.21141 412.414 8.98445 413.725 10.2938C414.283 10.8926 414.72 11.5978 415.012 12.3688C415.302 13.1399 415.441 13.9619 415.42 14.7877V14.8469C415.42 18.183 413.522 20.2062 410.777 21.068L414.691 26.0982C415.047 26.4754 415.255 26.9729 415.275 27.4963C415.271 27.7231 415.223 27.947 415.135 28.1551C415.046 28.3632 414.918 28.5514 414.758 28.7091C414.598 28.8667 414.409 28.9907 414.202 29.0739C413.994 29.1571 413.773 29.1979 413.55 29.194C413.203 29.1987 412.86 29.1137 412.553 28.9468C412.247 28.78 411.986 28.5367 411.797 28.2397L406.834 21.7818H402.307V27.3816C402.246 27.8224 402.029 28.2258 401.699 28.5177C401.37 28.8094 400.947 28.9701 400.51 28.9701C400.073 28.9701 399.65 28.8094 399.32 28.5177C398.99 28.2258 398.774 27.8224 398.713 27.3816V10.0608C398.709 9.81682 398.754 9.5745 398.843 9.34835C398.933 9.12219 399.066 8.91668 399.236 8.74414C399.405 8.57167 399.607 8.43555 399.829 8.34402C400.051 8.2525 400.289 8.20745 400.528 8.21141ZM407.568 18.5344C410.138 18.5344 411.771 17.1659 411.771 15.0539V14.9985C411.771 12.7645 410.196 11.5439 407.539 11.5439H402.31V18.5344H407.568Z" fill="#081B4B"/>
<path d="M420.862 8.18998C421.083 8.10105 421.319 8.05801 421.556 8.06346C421.789 8.06249 422.021 8.10871 422.237 8.19952C422.453 8.29027 422.649 8.42379 422.814 8.5923C422.98 8.76088 423.11 8.96107 423.199 9.18138C423.287 9.4017 423.332 9.63772 423.331 9.87581V27.3779C423.31 27.8488 423.112 28.2933 422.778 28.619C422.443 28.9447 421.999 29.1265 421.536 29.1265C421.073 29.1265 420.628 28.9447 420.294 28.619C419.959 28.2933 419.761 27.8488 419.741 27.3779V9.87951C419.739 9.63791 419.786 9.39858 419.877 9.17554C419.969 8.95257 420.103 8.7505 420.272 8.5812C420.441 8.41191 420.642 8.27891 420.862 8.18998Z" fill="#081B4B"/>
<path d="M443.219 24.0159C443.518 23.7438 443.906 23.5948 444.308 23.5979C444.755 23.5988 445.184 23.7782 445.503 24.0976C445.823 24.417 446.006 24.8511 446.014 25.3067C446.012 25.5545 445.959 25.7991 445.858 26.0246C445.758 26.2502 445.611 26.4517 445.429 26.616C443.502 28.3433 441.312 29.4122 438.013 29.4122C432.051 29.4122 427.615 24.6705 427.615 18.686V18.6269C427.615 12.7053 431.95 7.85634 438.143 7.85634C441.298 7.85634 443.371 8.80691 445.154 10.205C445.371 10.3777 445.548 10.5986 445.669 10.8511C445.791 11.1037 445.854 11.3811 445.854 11.6623C445.856 11.8997 445.81 12.1349 445.72 12.354C445.631 12.5732 445.499 12.7719 445.333 12.9383C445.167 13.1048 444.97 13.2357 444.753 13.3234C444.537 13.4111 444.305 13.4537 444.072 13.4487C443.679 13.4523 443.295 13.3221 442.982 13.0789C441.634 11.8727 439.901 11.2063 438.107 11.2037C434.223 11.2037 431.358 14.4844 431.358 18.5529V18.6121C431.358 22.7065 434.194 26.0094 438.107 26.0094C440.267 26.0094 441.726 25.2956 443.219 24.0159Z" fill="#081B4B"/>
<path d="M465.561 11.1297L459.193 17.3767L466.105 26.0982C466.42 26.4591 466.596 26.9245 466.599 27.4075C466.599 27.6476 466.553 27.8854 466.461 28.1066C466.406 28.2374 466.337 28.3609 466.255 28.4744C466.197 28.5528 466.134 28.6265 466.064 28.6947C465.895 28.8615 465.695 28.9917 465.474 29.0775C465.254 29.1633 465.019 29.2029 464.783 29.194C464.48 29.1916 464.181 29.1115 463.915 28.9609C463.649 28.8103 463.425 28.5941 463.262 28.3322L456.691 19.7882L453.362 23.0616V27.3742C453.341 27.8451 453.143 28.2896 452.809 28.6153C452.475 28.941 452.03 29.1228 451.567 29.1228C451.104 29.1228 450.66 28.941 450.325 28.6153C449.991 28.2896 449.793 27.8451 449.772 27.3742V9.87581C449.793 9.40494 449.991 8.96042 450.325 8.63475C450.66 8.30902 451.104 8.12727 451.567 8.12727C452.03 8.12727 452.475 8.30902 452.809 8.63475C453.143 8.96042 453.341 9.40494 453.362 9.87581V18.686L463.055 8.7662C463.235 8.54329 463.461 8.3644 463.718 8.24275C463.974 8.1211 464.254 8.05983 464.537 8.06346C464.756 8.06048 464.974 8.10221 465.177 8.18628C465.381 8.27034 465.565 8.3949 465.72 8.55277C465.875 8.71064 465.998 8.89849 466.081 9.10543C466.164 9.31231 466.205 9.53398 466.203 9.75748C466.201 10.0202 466.143 10.2792 466.032 10.5164C465.921 10.7535 465.76 10.9628 465.561 11.1297Z" fill="#081B4B"/>
<path d="M473.123 13.6892C473.123 15.2944 474.056 16.0082 477.998 16.9625H478.009C482.333 18.0314 484.551 19.6107 484.562 23.0616V23.1208C484.562 27.0191 481.556 29.3419 477.261 29.3419C474.49 29.3455 471.794 28.4259 469.583 26.7233C469.365 26.5644 469.187 26.3546 469.064 26.1114C468.942 25.8681 468.878 25.5985 468.879 25.3251C468.892 25.0061 468.989 24.6966 469.161 24.4293C469.332 24.162 469.571 23.9468 469.852 23.8066C470.134 23.6664 470.447 23.6063 470.76 23.6327C471.072 23.6592 471.372 23.7711 471.627 23.9567C473.225 25.3376 475.253 26.0964 477.349 26.0982C479.578 26.0982 480.979 25.0256 480.979 23.4795V23.4203C480.979 21.9298 480.162 21.1272 476.365 20.2358C472.012 19.1632 469.558 17.8539 469.558 14.0146V13.9554C469.558 10.3825 472.48 7.91553 476.539 7.91553C478.844 7.8686 481.107 8.54382 483.023 9.84992C483.267 10.001 483.468 10.2156 483.605 10.4716C483.741 10.7276 483.809 11.016 483.799 11.3072C483.799 11.5321 483.754 11.7545 483.669 11.9618C483.583 12.169 483.458 12.3569 483.3 12.5147C483.144 12.6725 482.957 12.797 482.752 12.8811C482.548 12.9653 482.329 13.0073 482.108 13.0049C481.777 13.0065 481.452 12.9129 481.171 12.7349C479.578 11.6919 478.06 11.1593 476.452 11.1593C474.35 11.1593 473.123 12.2578 473.123 13.63V13.6892Z" fill="#081B4B"/>
</g>
<defs>
<clipPath id="clip0_1_883">
<rect width="485" height="37" fill="white"/>
</clipPath>
</defs>
</svg>
